<?xml version="1.0" encoding="UTF-8"?>
<svg width="187px" height="52px" viewBox="0 0 187 52" version="1.1" xmlns="http://www.w3.org/2000/svg" xmlns:xlink="http://www.w3.org/1999/xlink">
    <!-- Generator: Sketch 46.2 (44496) - http://www.bohemiancoding.com/sketch -->
    <title>logo_etp_svg_2-5055085b95cb06dd91b15be191c82a76f910a8da8e0484eb1b9cc52eec6722a8</title>
    <desc>Created with Sketch.</desc>
    <defs>
        <polygon id="path-1" points="0 61 220.988475 61 220.988475 0 0 0"></polygon>
    </defs>
    <g id="Mobile" stroke="none" stroke-width="1" fill="none" fill-rule="evenodd">
        <g id="Меню" transform="translate(-15.000000, -36.000000)">
            <g id="Menu">
                <g id="logo_etp_svg_2-5055085b95cb06dd91b15be191c82a76f910a8da8e0484eb1b9cc52eec6722a8" transform="translate(15.000000, 31.000000)">
                    <polygon id="Shape" points="0 61 190 61 190 0 6.6262696e-15 0"></polygon>
                    <g id="Clipped" transform="translate(0.000000, 5.000000)">
                        <mask id="mask-2" fill="white">
                            <use xlink:href="#path-1"></use>
                        </mask>
                        <g id="Shape"></g>
                        <g id="Group" mask="url(#mask-2)" fill-rule="nonzero" fill="#1E3262">
                            <g transform="translate(93.476273, 25.391050) scale(-1, 1) rotate(-180.000000) translate(-93.476273, -25.391050) translate(-0.023727, -0.608950)" id="Shape">
                                <path d="M38.7088957,28.9074658 C39.7850844,30.5728379 38.5631442,31.6501322 37.9759011,32.5309761 C38.2203738,33.2650128 38.856342,35.1259866 36.4116143,36.7425643 C36.802686,38.4070879 34.7973313,40.1700487 32.9394229,41.0025226 C32.8911215,42.2266242 29.2236062,45.4088639 22.9160391,45.4088639 C16.6080483,45.4088639 13.0396779,42.8138535 13.0396779,42.8138535 C14.1633206,43.3034941 18.4663804,44.5280199 22.4270936,44.5280199 C28.4901879,44.4304313 30.6417178,41.9330095 30.6417178,41.9330095 C30.6417178,41.9330095 26.5827071,43.1571111 20.667059,42.8630721 C15.3861081,42.6678947 9.61705905,39.6311894 9.61705905,39.6311894 C9.61705905,39.6311894 8.98024348,39.0931788 9.1276898,38.7019754 C10.0077071,39.0439601 13.8701227,40.9537283 20.0310909,41.7374078 C26.1916354,42.5206631 30.8861906,40.4645119 30.8861906,40.4645119 C30.8861906,40.4645119 30.2506461,39.4843821 29.6638267,39.191616 C26.2895092,40.0232414 21.6449502,40.07246 16.7059222,39.3375748 C11.7673179,38.6035381 6.9757362,34.9800278 6.9757362,34.9800278 C6.9757362,34.9800278 6.34019172,34.2947855 6.82871357,34.0011709 C8.149375,34.7844262 11.9139168,37.3306422 18.0261599,38.3103478 C24.1379793,39.2892047 27.4144229,38.5543195 28.1474176,38.0642546 C27.4144229,37.6242569 21.39963,36.7913587 16.6076246,35.7136402 C11.8156192,34.6367702 8.58874808,32.8254394 7.12191143,31.5029005 C5.65507477,30.1816346 5.50889954,27.9769789 6.53509202,26.4601113 C6.43764187,25.970895 5.45890337,24.2567285 8.05192485,22.9350383 C8.00192868,22.0041271 6.73083972,20.2415905 10.740278,18.3806167 C11.083472,16.1284396 14.945464,13.2881846 21.1064321,12.5049293 C27.3165491,11.673304 30.4942715,14.4142731 30.4942715,14.4142731 C30.4942715,14.4142731 26.9254774,13.0925829 21.7424003,13.4842105 C16.9503949,13.4842105 12.9409567,17.3028982 12.9409567,17.3028982 C12.9409567,17.3028982 15.3856844,15.540786 22.7685928,14.8546951 C30.2002262,14.5619291 34.1122143,17.0101322 34.1122143,17.0101322 L34.4054122,17.4993485 C32.988148,17.0101322 28.1961426,15.9328379 22.9639168,15.9820566 C17.732962,16.0308509 12.5981863,19.1159263 12.5981863,19.1159263 L12.6956365,19.7523742 C12.6956365,19.7523742 12.549885,20.1936448 13.0388305,20.0459889 C13.5277761,19.8996058 17.6833896,17.4017598 25.1158704,17.5489914 C32.5475038,17.6957987 36.3616181,20.0947832 36.3616181,20.0947832 C36.3616181,20.0947832 36.8505637,20.7808741 36.6065146,20.7808741 C33.5253949,19.6055669 28.9291373,18.577067 24.3328796,18.577067 C19.7366219,18.577067 14.6031173,20.9276814 14.6031173,20.9276814 L16.5588995,21.7109367 C16.5588995,21.7109367 19.9323696,20.2912335 26.9733551,20.4872594 C34.0143405,20.6824368 38.2690989,24.1591398 38.2690989,24.1591398 C38.2690989,24.1591398 38.4152742,24.2567285 38.3665491,24.5507674 C35.0901054,22.9350383 30.4455464,21.759731 26.9733551,21.5144864 C23.5020111,21.2700904 19.7366219,22.3957547 19.7366219,22.3957547 C19.7366219,22.3957547 23.3549885,22.8858196 29.2231825,24.1099212 C35.4811771,25.0404081 38.708472,28.9087387 38.708472,28.9087387 M35.7752224,35.3725041 C36.875138,35.0296708 36.4107669,33.7805356 36.4107669,33.7805356 C36.4107669,33.7805356 34.8947814,34.5892488 35.0905291,34.5892488 C35.2867005,34.8336448 35.7756461,35.3725041 35.7756461,35.3725041 M31.9615318,38.6043867 C32.2551534,38.6531811 32.7440989,39.6324623 32.7440989,39.6324623 C33.72199,38.9960144 34.0647604,38.5067981 34.1622105,37.9679388 C33.8190165,38.1631162 31.6679103,38.5555924 31.9611081,38.6043867 M30.7391679,37.6255298 C30.7391679,37.6255298 33.2821933,36.8906446 33.7711388,36.5478113 C33.5762385,35.862569 32.5975,35.3725041 32.5975,35.3725041 C32.5975,35.3725041 30.3485199,36.302991 29.0278585,36.4502226 C30.1531959,36.9398632 30.7395916,37.6255298 30.7395916,37.6255298 M8.03582439,28.2077974 L7.57950345,28.272715 C7.57950345,28.272715 7.15580713,29.0890656 7.77525115,29.7416369 C8.39384778,30.3942082 10.154306,32.1889914 16.2504486,33.6260909 C22.3461676,35.0627661 26.8119268,35.6499954 30.1697201,34.6380431 C30.4302933,34.4751125 30.0392216,34.4089219 30.0392216,34.4089219 C30.0392216,34.4089219 21.661898,32.6803292 19.0536235,32.2229353 C16.4453489,31.7646928 9.7958589,30.2966195 8.03540069,28.2077974 M8.85821894,23.9635381 C8.29597393,24.1353791 8.1497987,25.43246 8.1497987,25.43246 C8.56502109,25.0166473 9.34716449,24.6492047 9.34716449,24.6492047 C9.34716449,24.6492047 9.07854103,24.4777881 8.85864264,23.9635381 M14.0989187,29.0232993 C16.6737212,29.871048 25.8340357,31.3408185 27.8876917,31.8304591 C29.8430502,32.2547577 33.3309183,33.4954069 33.3309183,33.4954069 C33.3309183,33.4954069 35.3193252,32.6790563 35.2544996,32.5483724 C35.1888267,32.4168398 33.5597143,31.5690911 31.1793884,30.8185068 C28.7999099,30.0683469 18.3680828,28.1097844 16.0873255,27.6850614 C13.8048735,27.2607628 10.8707765,25.726499 10.8707765,25.726499 L9.46918903,26.7702736 C10.2843808,27.8798145 14.0980713,29.0232993 14.0980713,29.0232993 M10.6424041,20.0218038 L9.78653758,21.1971111 L9.76196319,21.5887387 C9.83568635,21.172926 11.1305023,20.9030721 11.1305023,20.9030721 L10.6419804,20.0218038 M12.255416,21.9065384 C12.255416,21.9065384 10.7885794,22.5429863 10.6174061,23.0080176 C10.9106039,23.3754602 11.3020993,23.6699235 11.3020993,23.6699235 C12.2062673,23.0334755 13.012985,22.8374496 13.7468271,22.6660329 C13.3316047,22.494192 12.255416,21.9065384 12.255416,21.9065384 M15.9225077,23.4734732 L13.4777799,24.6487804 C13.8688516,24.7794644 16.3792523,25.7252261 18.9222776,26.18262 C24.4960027,27.0320658 29.1672546,27.9069696 31.764513,28.7284118 C34.8617331,29.7085416 36.6878643,31.2105588 36.6878643,31.2105588 C36.6878643,31.2105588 36.7200652,31.0141085 36.7522661,29.5782819 C33.9490913,26.4444122 23.1918654,24.9423951 21.0733838,24.5503431 C18.9540548,24.1591398 15.9225077,23.4734732 15.9225077,23.4734732"></path>
                                <path d="M22.50463,51.3910503 C10.0890567,51.3889288 0.0249980828,41.3105634 0.0249980828,28.8777649 C0.0249980828,16.4449664 10.0886331,6.36660097 22.5042063,6.36447948 C34.9197795,6.36660097 44.9838382,16.4449664 44.9838382,28.8777649 C44.9838382,41.3105634 34.9202032,51.3889288 22.50463,51.3910503 M22.50463,7.30642244 C10.6072373,7.32763738 0.985093942,16.9643079 0.96221434,28.8777649 C0.985941334,40.7912219 10.6080847,50.428741 22.5050537,50.4491073 C34.4024463,50.428741 44.0254371,40.7912219 44.0466219,28.8777649 C44.0254371,16.9643079 34.4020226,7.32763738 22.5050537,7.30642244"></path>
                                <path d="M73.868911,22.4462462 C73.6600288,22.4462462 73.4833474,22.3520519 73.340138,22.1662091 C73.1935391,21.9769719 73.1223581,21.7130582 73.1257477,21.3744679 L74.6074137,21.3744679 C74.5989398,21.7300301 74.5226745,21.9973383 74.3798888,22.1763923 C74.2366794,22.3562949 74.0663535,22.4462462 73.868911,22.4462462 L73.868911,22.4462462 Z M62.6934969,10.2650568 L66.3288113,10.2650568 L66.327964,9.19794575 L63.732824,9.19794575 L63.732824,4.00750058 L62.6934969,4.00750058 L62.6934969,10.2650568 Z M66.9770667,8.57846974 L67.9007247,8.57846974 L67.9007247,7.90680501 C68.0265625,8.14738233 68.1930752,8.33704382 68.3989916,8.47536518 C68.6053317,8.61283793 68.8269248,8.68157431 69.0641948,8.68157431 C69.4921281,8.68157431 69.8586254,8.47791097 70.1666526,8.07058428 C70.4751035,7.66325759 70.6284816,7.08536286 70.6284816,6.33647577 C70.6284816,5.54982611 70.4742561,4.94817065 70.1645341,4.53066079 C69.8552358,4.11399954 69.4874674,3.90482031 69.0608052,3.90482031 C68.862939,3.90482031 68.6794785,3.95234176 68.5087289,4.04908185 C68.3379793,4.14497334 68.1583321,4.31893578 67.9693635,4.57224206 L67.9693635,2.26957338 L66.9762193,2.26957338 L66.9762193,8.57889404 L66.9770667,8.57846974 Z M71.9995629,8.57846974 L72.8893252,5.3334338 L73.7663765,8.57846974 L74.7883321,8.57846974 L73.4693654,4.18019012 L73.2164187,3.32310689 C73.1045629,3.00148852 72.9935544,2.76727568 72.8829697,2.61792256 C72.7728087,2.46814514 72.6329889,2.35358451 72.4622393,2.27296777 C72.2914896,2.19319963 72.0821837,2.15246696 71.8322028,2.15331556 C71.6406921,2.15246696 71.4529946,2.17665198 71.2699578,2.22544633 L71.1835238,3.17248087 C71.3381729,3.13556689 71.4767216,3.11732205 71.600441,3.11732205 C71.7889858,3.11732205 71.9444824,3.17969395 72.0665069,3.30655924 C72.1881077,3.43257593 72.286829,3.66212149 72.3647891,3.99519592 L70.9424406,8.57846974 L71.9995629,8.57846974 L71.9995629,8.57846974 Z M75.3946415,8.57337816 L78.7206576,8.57337816 L78.7206576,4.00792488 L77.7228528,4.00792488 L77.7228528,7.62294922 L76.3869383,7.62294922 L76.3869383,4.00792488 L75.3946415,4.00792488 L75.3946415,8.57337816 Z M79.7515107,8.57337816 L83.0775268,8.57337816 L83.0775268,4.00792488 L82.079722,4.00792488 L82.079722,7.62294922 L80.7438075,7.62294922 L80.7438075,4.00792488 L79.7515107,4.00792488 L79.7515107,8.57337816 Z M86.1510199,7.48717366 C86.1150058,7.56609321 86.0493328,7.6301623 85.9531538,7.68065384 C85.8578221,7.73156967 85.7222393,7.75702759 85.5472527,7.75702759 C85.3693002,7.75702759 85.2303278,7.71587062 85.1286407,7.63567818 C85.0261062,7.55506144 84.9439091,7.40485973 84.8803547,7.18380014 L83.9821185,7.3823719 C84.0910084,7.84400881 84.2710794,8.17581034 84.5223313,8.37820079 C84.7723121,8.58016694 85.132454,8.68199861 85.6027569,8.68199861 C86.0200978,8.68199861 86.3399885,8.6225968 86.5603106,8.50549038 C86.7806327,8.38795966 86.9386714,8.22799907 87.0331557,8.02603292 C87.12764,7.82406677 87.1746702,7.45577556 87.1746702,6.92200788 L87.1661963,5.51036633 C87.1661963,5.11492001 87.1818731,4.81875956 87.2128029,4.62570369 C87.2454275,4.43222351 87.3043213,4.22686297 87.3907554,4.00834918 L86.4094747,4.00834918 L86.2815184,4.50732437 C86.1120399,4.30790401 85.9306979,4.1568537 85.7374923,4.05587062 C85.5442868,3.95573615 85.3383704,3.90566891 85.1210142,3.90566891 C84.7574827,3.90566891 84.4592005,4.02871551 84.227015,4.27353582 C83.9952531,4.51835613 83.8787366,4.84506608 83.8787366,5.25239277 C83.8787366,5.51036633 83.927038,5.73609321 84.0215222,5.92787619 C84.1160065,6.11881057 84.2490472,6.27283098 84.4214916,6.3882402 C84.5930886,6.50280083 84.8684912,6.60463251 85.2464283,6.69373522 C85.7048677,6.79980988 86.023911,6.89909576 86.2048294,6.99074426 C86.2048294,7.24277765 86.1866104,7.40910271 86.1505962,7.48717366 L86.1510199,7.48717366 Z M90.1884222,10.2654811 L93.8228892,10.2654811 L93.8228892,9.19837004 L91.2277492,9.19837004 L91.2277492,4.00792488 L90.1879985,4.00792488 L90.1879985,10.2654811 L90.1884222,10.2654811 Z M96.5099712,7.48717366 C96.4739571,7.56651751 96.4082841,7.6305866 96.3121051,7.68107814 C96.2167734,7.73199397 96.0811906,7.75745189 95.906204,7.75745189 C95.7282515,7.75745189 95.5892791,7.71629492 95.487592,7.63610248 C95.3859049,7.55548574 95.3032841,7.40528403 95.2397297,7.18422444 L94.3414935,7.3827962 C94.4503834,7.84443311 94.6304544,8.17623464 94.8817063,8.37862509 C95.1316871,8.58059124 95.491829,8.68242291 95.9621319,8.68242291 C96.3798965,8.68242291 96.6993635,8.6230211 96.9196856,8.50591468 C97.1408551,8.38838396 97.2980464,8.22842337 97.3929544,8.02645722 C97.4874387,7.82449107 97.5344689,7.45619986 97.5344689,6.92243218 L97.525995,5.51079063 C97.525995,5.11534431 97.5420955,4.81918386 97.5726016,4.62612799 C97.6052262,4.43264781 97.66412,4.22728727 97.7505541,4.00877348 L96.7701208,4.00877348 L96.6413171,4.50774867 C96.4718386,4.30832831 96.2909202,4.157278 96.0977147,4.05629492 C95.9040855,3.95616045 95.6981691,3.90609321 95.4808129,3.90609321 C95.116434,3.90609321 94.8189992,4.02913981 94.5868137,4.27396012 C94.3550518,4.51878043 94.2385353,4.84549038 94.2385353,5.25281706 C94.2385353,5.51079063 94.2859893,5.73651751 94.3808972,5.92830049 C94.4753815,6.11923487 94.6084222,6.27325527 94.7804429,6.3886645 C94.9524636,6.50322513 95.2278662,6.60505681 95.6058033,6.69415952 C96.0642427,6.80023418 96.383286,6.89952006 96.563357,6.99116856 C96.563357,7.24320195 96.5464091,7.40952701 96.5099712,7.48759796 L96.5099712,7.48717366 Z M100.160539,5.72803153 C100.043175,5.832409 99.8927627,5.88502203 99.7088785,5.88502203 L99.5241469,5.88502203 L99.5241469,6.6682773 C99.9880943,6.6682773 100.220704,6.86897055 100.220704,7.27078136 C100.220704,7.43456063 100.174097,7.57203339 100.083002,7.68362393 C99.9919076,7.79563877 99.8669172,7.85122189 99.7093021,7.85122189 C99.4059356,7.85122189 99.1953585,7.65604452 99.0779946,7.26229539 L98.2314494,7.48165778 C98.4293156,8.27933921 98.9246166,8.67817992 99.7186235,8.67817992 C100.15376,8.67817992 100.500343,8.55683051 100.757951,8.3124345 C101.016405,8.06888709 101.145209,7.74981451 101.145209,7.35776258 C101.145209,6.92625087 100.922768,6.58426617 100.478311,6.3288384 C101.028269,6.12729655 101.303671,5.75433805 101.303671,5.2099629 C101.303671,4.83063993 101.161309,4.51835613 100.875738,4.27141433 C100.591014,4.02447252 100.205451,3.90142592 99.7181998,3.90142592 C98.8453854,3.90142592 98.2988171,4.32996754 98.0814609,5.18789937 L98.988171,5.38137955 C99.1364647,4.93713888 99.3779716,4.7152307 99.7093021,4.7152307 C99.8813229,4.7152307 100.029193,4.77123812 100.152065,4.88495015 C100.274937,4.99823789 100.336796,5.14080223 100.336796,5.31264317 C100.336796,5.48490842 100.278326,5.62365407 100.160962,5.72845583 L100.160539,5.72803153 Z M102.073528,8.57465105 L105.399544,8.57465105 L105.399544,4.00919777 L104.401739,4.00919777 L104.401739,7.62422212 L103.065824,7.62422212 L103.065824,4.00919777 L102.073528,4.00919777 L102.073528,8.57465105 Z M106.434634,8.57974264 L107.358292,8.57974264 L107.358292,7.9080779 C107.48413,8.14865523 107.650642,8.33831672 107.856559,8.47663807 C108.06417,8.61411083 108.284492,8.68284721 108.523033,8.68284721 C108.950119,8.68284721 109.31704,8.47918386 109.624643,8.07185718 C109.933942,7.66453049 110.086472,7.08663575 110.086472,6.33774867 C110.086472,5.551099 109.932671,4.94944354 109.622949,4.53193369 C109.31365,4.11527243 108.945035,3.90609321 108.518372,3.90609321 C108.320506,3.90609321 108.137046,3.95361465 107.966296,4.05035474 C107.795546,4.14624623 107.615899,4.32020867 107.427354,4.57351495 L107.427354,2.27084628 L106.434634,2.27084628 L106.434634,8.58016694 L106.434634,8.57974264 Z M110.907172,7.58051936 C111.085972,7.94796198 111.31731,8.22375609 111.603729,8.4070531 C111.890148,8.5907744 112.212581,8.68284721 112.570604,8.68284721 C113.172253,8.68284721 113.644674,8.44693717 113.988292,7.97511709 C114.332333,7.50329701 114.50393,6.95128449 114.50393,6.32035242 C114.50393,5.84938094 114.414107,5.42508231 114.235307,5.04660793 C114.056083,4.66728495 113.821355,4.38300487 113.530276,4.19207048 C113.240044,4.0011361 112.921001,3.90609321 112.573993,3.90609321 C112.018951,3.90609321 111.55797,4.11824252 111.191049,4.54254115 C110.824551,4.96768838 110.641515,5.57358683 110.641515,6.3585393 C110.641515,6.80617436 110.730491,7.21434964 110.907596,7.58051936 L110.907172,7.58051936 Z M115.30853,8.57507535 L116.541486,8.57507535 L117.465144,5.39538141 L118.40575,8.57507535 L119.631079,8.57507535 L119.631079,4.00962207 L118.775213,4.00962207 L118.775213,7.01365639 L117.868503,4.00962207 L117.022381,4.00962207 L116.162278,7.01365639 L116.162278,4.00962207 L115.308106,4.00962207 L115.308106,8.57507535 L115.30853,8.57507535 Z M120.921658,9.57557153 C121.249599,10.0537561 121.836842,10.2926362 122.681269,10.2926362 L123.149877,10.2926362 C123.301561,10.2926362 123.394774,10.347795 123.429517,10.4602342 L124.108278,10.4602342 C124.099804,10.1250383 124.035403,9.87470206 123.916768,9.71092279 C123.798133,9.54799212 123.671024,9.45082773 123.536288,9.42112683 C123.401977,9.39142592 123.125303,9.37021099 122.704572,9.35875493 C122.285113,9.34687457 122.01649,9.32056805 121.897431,9.28110828 C121.778796,9.24122421 121.65084,9.15678878 121.514833,9.0273777 C121.37925,8.89796661 121.278411,8.72018549 121.214009,8.49361002 C121.149607,8.26745885 121.113593,7.95559935 121.104695,7.56015303 C121.422467,8.23139346 121.886415,8.56658938 122.496538,8.56658938 C122.975314,8.56658938 123.388418,8.33746812 123.736697,7.8779527 C124.084128,7.41886158 124.257843,6.87236494 124.257843,6.23803849 C124.257843,5.57867841 124.073535,5.025393 123.702801,4.57903084 C123.334185,4.13351727 122.870238,3.91076049 122.311806,3.91076049 C121.878788,3.91076049 121.505936,4.04780895 121.191977,4.32360306 C120.878441,4.59939717 120.673372,4.95326223 120.575498,5.38647113 C120.478048,5.82010434 120.4289,6.42685138 120.4289,7.20671227 C120.4289,8.30988871 120.593294,9.09908416 120.920387,9.57599583 L120.921658,9.57557153 Z M127.0911,7.48844656 C127.055086,7.5682147 126.989413,7.63270809 126.893234,7.68277533 C126.798326,7.73369117 126.663167,7.75914908 126.487757,7.75914908 C126.309804,7.75914908 126.170832,7.71799212 126.069145,7.63779968 C125.967458,7.55718294 125.885261,7.40698122 125.82213,7.18592163 L124.923894,7.38449339 C125.032784,7.8461303 125.212007,8.17793183 125.463683,8.38032228 C125.713664,8.58228843 126.073806,8.6841201 126.544109,8.6841201 C126.961873,8.6841201 127.28134,8.62471829 127.50251,8.50761187 C127.722832,8.39008115 127.880447,8.23012057 127.974931,8.02815442 C128.069839,7.82618827 128.116446,7.45789706 128.116446,6.92412938 L128.107972,5.51248783 C128.107972,5.1170415 128.123648,4.82088106 128.154578,4.62782518 C128.186779,4.434345 128.245673,4.22898447 128.331683,4.01047067 L127.35125,4.01047067 L127.224141,4.50944586 C127.054663,4.3100255 126.872473,4.15897519 126.679691,4.05799212 C126.486486,3.95785764 126.281417,3.9077904 126.063213,3.9077904 C125.699682,3.9077904 125.4014,4.030837 125.169214,4.27565732 C124.937452,4.52047763 124.820936,4.84718757 124.820936,5.25451426 C124.820936,5.51248783 124.868813,5.7382147 124.963298,5.92999768 C125.058206,6.12093207 125.191246,6.27495247 125.363267,6.3903617 C125.53444,6.50492233 125.809843,6.606754 126.18778,6.69585671 C126.646219,6.80193137 126.965263,6.90121725 127.146181,6.99286575 C127.146181,7.24489914 127.127962,7.41122421 127.091948,7.48929515 L127.0911,7.48844656 Z M129.053662,8.57549965 L130.046382,8.57549965 L130.046382,6.91055182 L131.464918,6.91055182 L131.464918,8.57634825 L132.457214,8.57634825 L132.457214,4.01089497 L131.464918,4.01089497 L131.464918,5.92999768 L130.046806,5.92999768 L130.046806,4.01004637 L129.055357,4.01004637 L129.055357,8.57549965 L129.053662,8.57549965 Z M133.410955,8.57549965 L134.403252,8.57549965 L134.403252,6.71707164 C134.537563,6.7310735 134.640521,6.77562486 134.71255,6.85030141 C134.784578,6.92497797 134.873554,7.14518896 134.978631,7.51093438 C135.085403,7.87667981 135.201919,8.15162532 135.329452,8.33534663 C135.456561,8.51864364 135.682391,8.61029214 136.006095,8.61029214 C136.097613,8.61029214 136.226417,8.59926038 136.392506,8.57549965 L136.392506,7.79224438 L136.284887,7.79224438 C136.126848,7.79309297 136.007366,7.76975655 135.924745,7.7243566 C135.840006,7.67768375 135.76374,7.52578484 135.691712,7.26738697 C135.619684,7.0094134 135.551892,6.81338743 135.485372,6.67761187 C135.419275,6.5435335 135.310385,6.43576165 135.159126,6.35514491 C135.28454,6.30932066 135.411225,6.21936935 135.538758,6.08444238 C135.666714,5.94866682 135.819245,5.67838859 135.99635,5.27106191 L136.542071,4.00962207 L135.484948,4.00962207 L134.982444,5.33046371 C134.882028,5.59777185 134.796018,5.7691885 134.72399,5.84556225 C134.652809,5.92193601 134.54519,5.95884999 134.40198,5.95884999 L134.40198,4.00919777 L133.409684,4.00919777 L133.409684,8.57465105 L133.410955,8.57549965 Z M139.071538,7.48929515 C139.0351,7.568639 138.96985,7.63270809 138.873248,7.68319963 C138.777916,7.73411546 138.642757,7.75957338 138.467347,7.75957338 C138.289394,7.75957338 138.150422,7.71841642 138.048735,7.63822397 C137.947048,7.55760723 137.86485,7.40740552 137.80172,7.18634593 L136.903484,7.38491769 C137.012373,7.8465546 137.191597,8.17835613 137.443273,8.38074658 C137.693253,8.58271273 138.053395,8.6845444 138.523698,8.6845444 C138.941039,8.6845444 139.26093,8.62514259 139.481252,8.50803617 C139.702421,8.39050545 139.859613,8.23054486 139.954097,8.02857872 C140.049005,7.82661257 140.095612,7.45832135 140.095612,6.92455367 L140.087138,5.51291213 C140.087138,5.1174658 140.102814,4.82130536 140.133744,4.62824948 C140.166369,4.4347693 140.224839,4.22940876 140.310849,4.01089497 L139.330416,4.01089497 L139.20246,4.50987016 C139.032981,4.3104498 138.851639,4.15939949 138.658434,4.05841642 C138.465228,3.95828194 138.260159,3.9082147 138.041956,3.9082147 C137.678424,3.9082147 137.380142,4.0312613 137.147956,4.27608161 C136.916194,4.52090192 136.799678,4.84761187 136.799678,5.25493856 C136.799678,5.51291213 136.847979,5.738639 136.942464,5.93042198 C137.037372,6.12135636 137.169988,6.27537677 137.342433,6.390786 C137.51403,6.50534663 137.789433,6.6071783 138.16737,6.69628101 C138.625809,6.80235567 138.944852,6.90164155 139.125771,6.99329005 C139.125771,7.24532344 139.107128,7.4116485 139.071538,7.48971945 L139.071538,7.48929515 Z M56.9125844,0.184145606 L146.617569,0.184145606 L146.617569,12.846914 L56.9125844,12.846914 L56.9125844,0.184569905 L56.9125844,0.184145606 Z M85.3324387,22.4156967 C85.0909317,22.4156967 84.8917945,22.3028333 84.7307899,22.077955 C84.5706327,21.8522281 84.489283,21.5136378 84.489283,21.0604869 C84.489283,20.5441155 84.5740222,20.1630953 84.741806,19.9191236 C84.909166,19.6760005 85.1116929,19.5542268 85.3498102,19.5542268 C85.576064,19.5542268 85.7663037,19.6666659 85.9218002,19.8915442 C86.0760257,20.1176953 86.1535621,20.4855623 86.1535621,20.9955692 C86.1535621,21.4805425 86.0739072,21.8386506 85.9150211,22.0698933 C85.756135,22.3011361 85.5620821,22.416121 85.3328623,22.416121 L85.3324387,22.4156967 Z"></path>
                                <path d="M68.8159087,4.86415952 C69.0421626,4.86415952 69.2319785,4.97702295 69.3870514,5.20190123 C69.5417005,5.4276281 69.619237,5.79591931 69.619237,6.30507767 C69.619237,6.79005101 69.5395821,7.14815905 69.3806959,7.37940181 C69.2222335,7.61106886 69.0281806,7.72605379 68.7989609,7.72605379 C68.5583014,7.72605379 68.3583167,7.61276606 68.1973121,7.38788778 C68.0371549,7.16216091 67.9566526,6.8235706 67.9566526,6.37041966 C67.9566526,5.85404823 68.0396971,5.47302805 68.2079045,5.22905634 C68.3752646,4.98593323 68.5782151,4.86415952 68.8159087,4.86415952 L68.8159087,4.86415952 Z M84.8727281,5.37586367 C84.8727281,5.20062833 84.9252665,5.0542453 85.0294958,4.93459309 C85.1341488,4.81578947 85.2654946,4.75638767 85.422686,4.75638767 C85.5633531,4.75638767 85.7023255,4.80433341 85.8396031,4.9006492 C85.9773044,4.99696499 86.0726361,5.11067702 86.1251745,5.2430582 C86.1789839,5.37459077 86.2056768,5.6143195 86.2056768,5.96139578 L86.2056768,6.203246 C86.0794153,6.15105727 85.8836676,6.09080686 85.6167389,6.02164619 C85.3104064,5.94102945 85.1095744,5.85277533 85.0150901,5.75433805 C84.9210295,5.65759796 84.8731518,5.53158127 84.8731518,5.37671227 L84.8727281,5.37586367 Z M116.526656,22.3859958 C116.277947,22.3859958 116.063556,22.2671922 115.884333,22.0287364 C115.70638,21.7911291 115.616133,21.4419314 115.616133,20.9828403 C115.616133,20.5203547 115.705957,20.171157 115.887299,19.9348226 C116.06737,19.698064 116.284726,19.5796847 116.539791,19.5796847 C116.788924,19.5796847 117.002467,19.6984883 117.179572,19.9369441 C117.357525,20.1745514 117.446501,20.5267192 117.446501,20.9913262 C117.446501,21.4444772 117.35583,21.7907048 117.176183,22.0287364 C116.995265,22.2663436 116.779179,22.3859958 116.526656,22.3859958 L116.526656,22.3859958 Z M105.892303,21.903144 C105.892303,21.5106677 106.121099,21.3133689 106.579962,21.3133689 L107.302364,21.3133689 L107.302364,22.4971621 L106.511323,22.4971621 C106.099066,22.4971621 105.892726,22.2994389 105.892726,21.903144 L105.892303,21.903144 Z M136.956869,34.855284 L136.956869,39.3006608 L138.341509,39.3006608 C139.320247,39.3006608 139.858342,38.7418595 139.858342,37.1218873 C139.858342,35.5010665 139.1245,34.924869 138.488955,34.8731046 C137.904254,34.8247345 136.957293,34.855284 136.957293,34.855284 L136.956869,34.855284 Z M144.242327,37.2907582 C144.242327,42.8724067 139.255422,43.3624716 137.935184,43.3624716 L136.957717,43.3624716 L136.957717,46.1042894 L143.118261,46.1042894 L143.118261,50.5339671 L132.605508,50.5339671 L132.605508,31.0586599 L138.473702,31.0586599 C139.402868,31.0586599 144.243175,31.7078368 144.243175,37.2894853 L144.242327,37.2907582 Z M89.6414302,22.3859958 C89.3931442,22.3859958 89.1787538,22.2671922 88.9995303,22.0287364 C88.8215778,21.7911291 88.7313305,21.4419314 88.7313305,20.9828403 C88.7313305,20.5203547 88.8211541,20.171157 89.0024962,19.9348226 C89.1825671,19.698064 89.3999233,19.5796847 89.6549885,19.5796847 C89.9041219,19.5796847 90.1176649,19.6984883 90.2947699,19.9369441 C90.4727224,20.1745514 90.5616986,20.5267192 90.5616986,20.9913262 C90.5616986,21.4444772 90.4710276,21.7907048 90.2913804,22.0287364 C90.110462,22.2663436 89.8943769,22.3859958 89.6418539,22.3859958 L89.6414302,22.3859958 Z M101.943029,20.4444053 C101.848969,20.3468166 101.801515,20.2212242 101.801515,20.0659309 C101.801515,19.8906956 101.853629,19.7434639 101.958282,19.6246603 C102.062512,19.5058567 102.194281,19.4464549 102.351472,19.4464549 C102.49214,19.4464549 102.631112,19.4939764 102.76839,19.5907164 C102.906091,19.6866079 103.000575,19.80032 103.053961,19.9327011 C103.106923,20.0642337 103.133616,20.3039624 103.133616,20.6510387 L103.133616,20.8928889 C103.007778,20.8411245 102.811607,20.7808741 102.544678,20.7121377 C102.238769,20.631521 102.037513,20.5424183 101.943029,20.4448296 L101.943029,20.4444053 Z M95.2325268,5.37586367 C95.2325268,5.20062833 95.2850652,5.0542453 95.3892945,4.93459309 C95.4939475,4.81578947 95.6252933,4.75638767 95.7824847,4.75638767 C95.9231518,4.75638767 96.0621242,4.80433341 96.1994018,4.9006492 C96.3371031,4.99696499 96.4324348,5.11067702 96.4849732,5.2430582 C96.5383589,5.37459077 96.5646281,5.6143195 96.5646281,5.96139578 L96.5646281,6.203246 C96.4387903,6.15105727 96.2426189,6.09080686 95.9756902,6.02164619 C95.6697814,5.94102945 95.4685257,5.85277533 95.3740414,5.75433805 C95.2808282,5.65759796 95.2325268,5.53158127 95.2325268,5.37671227 L95.2325268,5.37586367 Z M121.034785,22.4156967 C120.793278,22.4156967 120.594141,22.3028333 120.433137,22.077955 C120.272132,21.8522281 120.19163,21.5136378 120.19163,21.0604869 C120.19163,20.5441155 120.276369,20.1630953 120.444153,19.9191236 C120.611513,19.6760005 120.814039,19.5542268 121.052157,19.5542268 C121.277987,19.5542268 121.468227,19.6666659 121.622876,19.8915442 C121.777949,20.1176953 121.855909,20.4855623 121.855909,20.9955692 C121.855909,21.4805425 121.775406,21.8386506 121.616944,22.0698933 C121.458058,22.3011361 121.264005,22.416121 121.034785,22.416121 L121.034785,22.4156967 Z M108.2739,4.86415952 C108.500153,4.86415952 108.689969,4.97702295 108.845042,5.20190123 C109.000115,5.4276281 109.077228,5.79591931 109.077228,6.30507767 C109.077228,6.79005101 108.997573,7.14815905 108.838687,7.37940181 C108.679377,7.61106886 108.485324,7.72605379 108.256104,7.72605379 C108.015445,7.72605379 107.81546,7.61276606 107.654456,7.38788778 C107.494298,7.16216091 107.413796,6.8235706 107.413796,6.37041966 C107.413796,5.85404823 107.497264,5.47302805 107.665472,5.22905634 C107.833255,4.98593323 108.036206,4.86415952 108.2739,4.86415952 L108.2739,4.86415952 Z M62.6502799,35.1319267 C61.2308972,34.9982727 60.1970782,35.5519824 58.3129007,37.0497565 L56.7825096,33.8917018 C58.2900211,32.1563204 60.3627435,31.0841178 62.6498562,31.0841178 C67.6482017,31.0951495 71.0623466,34.5124507 71.0009107,40.8077695 C71.0009107,46.1751472 67.2596722,50.5335428 62.6498562,50.5335428 C60.3381691,50.5335428 58.2451093,49.4367308 56.7308186,47.6665569 L58.8535372,44.3676351 C59.7475364,45.6566543 61.1160755,46.4836123 62.6498562,46.4836123 C63.7654486,46.4836123 64.7950307,46.0465847 65.6165778,45.3116995 C66.3644018,44.6413077 66.5529467,43.7260955 66.5936215,42.6674704 L60.4195188,42.6674704 L60.4195188,38.8895154 L66.7114091,38.8895154 C66.74361,38.1766937 66.5546415,37.5326084 66.1250134,36.9844146 C65.2352512,35.8464456 64.0751706,35.1327753 62.6498562,35.1327753 L62.6502799,35.1319267 Z M122.532128,45.9082634 L125.51495,45.9082634 L125.51495,31.0595085 L130.159933,31.0595085 L130.159933,50.5339671 L117.936294,50.5339671 L117.936294,31.0595085 L122.532552,31.0595085 L122.532552,45.9082634 L122.532128,45.9082634 Z M111.530853,45.8102504 L116.029237,45.8102504 L116.029237,50.5339671 L106.787573,50.5339671 L106.787573,31.0586599 L111.530853,31.0586599 L111.530853,45.8094018 L111.530853,45.8102504 Z M75.0544133,31.0595085 L79.6998198,31.0595085 L79.6998198,45.9082634 L83.9189877,45.9082634 L83.9189877,50.5339671 L70.8352454,50.5339671 L70.8352454,45.9082634 L75.0544133,45.9082634 L75.0544133,31.0595085 L75.0544133,31.0595085 Z M112.579078,4.88961744 C112.827788,4.88961744 113.040907,5.00842105 113.218859,5.24687688 C113.396812,5.48448412 113.485788,5.83665198 113.485788,6.30125898 C113.485788,6.75525852 113.395117,7.10106191 113.214622,7.33909344 C113.034128,7.57670067 112.818466,7.69635289 112.566367,7.69635289 C112.316386,7.69635289 112.102419,7.57754927 111.92362,7.33909344 C111.745667,7.1014862 111.654996,6.75228843 111.654996,6.29319731 C111.654996,5.8315604 111.745243,5.48193833 111.926162,5.24517969 C112.106656,5.00884535 112.324436,4.89046603 112.578654,4.89046603 L112.579078,4.88961744 Z M122.319856,4.89852771 C122.57704,4.89852771 122.794396,5.0258173 122.970654,5.27912358 C123.146911,5.53370276 123.23504,5.85829121 123.23504,6.25501043 C123.23504,6.65045676 123.146911,6.97462091 122.970654,7.2266543 C122.79482,7.47911199 122.580853,7.60555298 122.32833,7.60555298 C122.078349,7.60555298 121.869891,7.48250638 121.70126,7.23556457 C121.531781,6.98862277 121.447042,6.66191282 121.447042,6.25458613 C121.447042,5.84471366 121.529663,5.51630652 121.694904,5.26936471 C121.858875,5.0232715 122.067757,4.89895201 122.319856,4.89895201 L122.319856,4.89852771 Z M137.792398,5.37586367 C137.792398,5.20062833 137.844937,5.0542453 137.949166,4.93459309 C138.053819,4.81578947 138.185165,4.75638767 138.342356,4.75638767 C138.483023,4.75638767 138.621996,4.80433341 138.759273,4.9006492 C138.896975,4.99696499 138.992306,5.11067702 139.044845,5.2430582 C139.098654,5.37459077 139.125347,5.6143195 139.125347,5.96139578 L139.125347,6.203246 C138.999086,6.15105727 138.803338,6.09080686 138.536409,6.02164619 C138.230077,5.94102945 138.029245,5.85277533 137.93476,5.75433805 C137.8407,5.65759796 137.792822,5.53158127 137.792822,5.37671227 L137.792398,5.37586367 Z M125.813232,5.37586367 C125.813232,5.20062833 125.865771,5.0542453 125.97,4.93459309 C126.074653,4.81578947 126.205999,4.75638767 126.36319,4.75638767 C126.503857,4.75638767 126.64283,4.80433341 126.780107,4.9006492 C126.917809,4.99696499 127.01314,5.11067702 127.065679,5.2430582 C127.119064,5.37459077 127.146181,5.6143195 127.146181,5.96139578 L127.146181,6.203246 C127.019072,6.15105727 126.823324,6.09080686 126.556396,6.02164619 C126.250487,5.94102945 126.049655,5.85277533 125.954747,5.75433805 C125.861534,5.65759796 125.813232,5.53158127 125.813232,5.37671227 L125.813232,5.37586367 Z M90.8472699,45.9082634 L93.830092,45.9082634 L93.830092,31.0595085 L98.4750748,31.0595085 L98.4750748,50.5339671 L86.2505886,50.5339671 L86.2505886,31.0595085 L90.8468462,31.0595085 L90.8468462,45.9082634 L90.8472699,45.9082634 Z"></path>
                                <path d="M179.641308,18.6971435 L179.512928,19.1961187 C179.343449,18.9958498 179.162531,18.8452237 178.969325,18.7442407 C178.77612,18.6436819 178.570203,18.5936147 178.352847,18.5936147 C177.988468,18.5936147 177.691033,18.7166613 177.458848,18.9619059 C177.227086,19.2071505 177.110569,19.5338604 177.110569,19.9411871 C177.110569,20.1991607 177.158023,20.4248875 177.252931,20.6166705 C177.346992,20.8084535 177.480033,20.9620496 177.652053,21.0774588 C177.82365,21.1920195 178.099053,21.2938511 178.47699,21.3829539 C178.934582,21.4890285 179.254049,21.5878901 179.434544,21.6799629 C179.434544,21.9319963 179.416748,22.0978971 179.380734,22.1763923 C179.34472,22.2557361 179.279047,22.3198052 179.182868,22.3698725 C179.087536,22.4207883 178.951954,22.4462462 178.776967,22.4462462 C178.599015,22.4462462 178.460042,22.4050893 178.358355,22.3253211 C178.256668,22.2447044 178.174471,22.0940784 178.110916,21.8734431 L177.21268,22.0715905 C177.32157,22.5323789 177.501641,22.865029 177.752469,23.0669951 C178.00245,23.2689613 178.362592,23.370793 178.832895,23.370793 C179.251083,23.370793 179.570974,23.3113911 179.791296,23.1938604 C180.011618,23.0763297 180.169233,22.9163691 180.264141,22.714403 C180.358625,22.5120125 180.405656,22.1437213 180.405656,21.6103779 L180.397182,20.1987364 C180.397182,19.8028658 180.412859,19.5071296 180.443788,19.3140737 C180.475989,19.1210179 180.534883,18.915233 180.620893,18.6971435 L179.64046,18.6971435 L179.641308,18.6971435 Z M175.796263,18.6971435 L175.294183,20.0179852 C175.194191,20.2852933 175.107757,20.4562856 175.035729,20.5322351 C174.964971,20.6086089 174.856929,20.6459471 174.713719,20.6459471 L174.713719,18.6967192 L173.72227,18.6967192 L173.72227,23.2621725 L174.713719,23.2621725 L174.713719,21.4037445 C174.848455,21.4177463 174.951837,21.4622977 175.023018,21.53655 C175.095046,21.6116508 175.184022,21.8318618 175.289946,22.1976072 C175.39587,22.5633527 175.512811,22.8374496 175.639919,23.0215952 C175.767876,23.2048922 175.993282,23.2965407 176.317834,23.2965407 C176.408928,23.2965407 176.538156,23.2859332 176.703397,23.2625968 L176.703397,22.4789172 L176.596626,22.4789172 C176.438587,22.4801901 176.318681,22.4564294 176.236484,22.4110294 C176.151745,22.3643566 176.074632,22.212882 176.003451,21.9544841 C175.931423,21.6965105 175.863631,21.5004846 175.797111,21.364709 C175.731862,21.2302064 175.623395,21.1228588 175.470865,21.0422421 C175.597126,20.9955692 175.723811,20.9064665 175.851344,20.7706909 C175.978453,20.635764 176.130984,20.3654857 176.308936,19.9581591 L176.854233,18.6962949 L175.797535,18.6962949 L175.796263,18.6971435 Z M173.085878,17.4878924 L172.286363,17.4878924 L172.286363,18.6971435 L169.450987,18.6971435 L169.450987,17.4878924 L168.651472,17.4878924 L168.651472,19.6997612 L169.046357,19.6997612 C169.436158,20.2471064 169.640803,21.4351426 169.660717,23.2625968 L172.690146,23.2625968 L172.690146,19.6993369 L173.085454,19.6993369 L173.085454,17.4866195 L173.085878,17.4878924 Z M167.43504,18.6971435 L167.30666,19.1961187 C167.137182,18.9958498 166.956263,18.8452237 166.763058,18.7442407 C166.569852,18.6436819 166.363936,18.5936147 166.14658,18.5936147 C165.782201,18.5936147 165.484342,18.7166613 165.252581,18.9619059 C165.020395,19.2071505 164.903878,19.5338604 164.903878,19.9411871 C164.903878,20.1991607 164.951756,20.4248875 165.04624,20.6166705 C165.141148,20.8084535 165.274189,20.9620496 165.44621,21.0774588 C165.617383,21.1920195 165.892786,21.2938511 166.270723,21.3829539 C166.729162,21.4890285 167.048629,21.5878901 167.229124,21.6799629 C167.229124,21.9319963 167.211329,22.0978971 167.175314,22.1763923 C167.1393,22.2557361 167.073627,22.3198052 166.977025,22.3698725 C166.881693,22.4207883 166.746534,22.4462462 166.571123,22.4462462 C166.393171,22.4462462 166.254199,22.4050893 166.152512,22.3253211 C166.050824,22.2447044 165.968204,22.0940784 165.905073,21.8734431 L165.006837,22.0715905 C165.115727,22.5323789 165.295798,22.865029 165.546626,23.0669951 C165.796607,23.2689613 166.156748,23.370793 166.627051,23.370793 C167.044816,23.370793 167.364283,23.3113911 167.585452,23.1938604 C167.805775,23.0763297 167.96339,22.9163691 168.057874,22.714403 C168.152782,22.5120125 168.199812,22.1437213 168.199812,21.6103779 L168.191338,20.1987364 C168.191338,19.8028658 168.206591,19.5071296 168.237945,19.3140737 C168.270146,19.1210179 168.328616,18.915233 168.414626,18.6971435 L167.434193,18.6971435 L167.43504,18.6971435 Z M164.479335,17.4878924 L163.680667,17.4878924 L163.680667,18.6971435 L159.053056,18.6971435 L159.053056,23.2625968 L160.044505,23.2625968 L160.044505,19.6743033 L161.067308,19.6743033 L161.067308,23.2625968 L162.060029,23.2625968 L162.060029,19.673879 L163.091306,19.673879 L163.091306,23.2621725 L164.084026,23.2621725 L164.084026,19.6734547 L164.479335,19.6734547 L164.479335,17.4861952 L164.479335,17.4878924 Z M158.031948,19.7345537 C157.852724,19.355655 157.617997,19.0713749 157.326917,18.8800162 C157.036262,18.6899304 156.716794,18.594039 156.370635,18.594039 C155.815592,18.594039 155.354611,18.8061883 154.987266,19.2304869 C154.620769,19.6556341 154.437308,20.2615326 154.437308,21.0473336 C154.437308,21.4945444 154.526285,21.9027197 154.70339,22.2693137 C154.881342,22.6367563 155.113528,22.9125504 155.399946,23.0958474 C155.685941,23.2791444 156.008374,23.3716415 156.366821,23.3716415 C156.96847,23.3716415 157.440891,23.1348829 157.784509,22.6630628 C158.128551,22.1920914 158.299724,21.6392302 158.299724,21.0082982 C158.299724,20.5373267 158.210748,20.1130281 158.031524,19.7354023 L158.031948,19.7345537 Z M153.672536,18.6975678 L152.68024,18.6975678 L152.68024,22.3125922 L151.344325,22.3125922 L151.344325,20.2301345 C151.344325,19.89409 151.320598,19.6191444 151.275263,19.4057222 C151.228656,19.1918757 151.150696,19.0213077 151.041382,18.8935938 C150.930374,18.7663042 150.82106,18.6882332 150.714289,18.6602295 C150.607094,18.6334987 150.458376,18.6199212 150.269408,18.6199212 C150.15501,18.6199212 149.949093,18.6453791 149.650811,18.6975678 L149.650811,19.5885949 C149.731313,19.5830791 149.866896,19.580109 150.059678,19.580109 C150.177042,19.580109 150.253731,19.6204173 150.291016,19.7031556 C150.329149,19.7837723 150.347368,19.9683422 150.346097,20.2560167 L150.346097,23.2630211 L153.672113,23.2630211 L153.672113,18.6975678 L153.672536,18.6975678 Z M149.020351,18.6975678 L148.022122,18.6975678 L148.022122,22.3125922 L146.685784,22.3125922 L146.685784,18.6975678 L145.693487,18.6975678 L145.693487,23.2630211 L149.019503,23.2630211 L149.019503,18.6975678 L149.020351,18.6975678 Z M142.724224,18.6975678 L141.732774,18.6975678 L141.732774,20.5996986 L141.564143,20.5996986 C141.381106,20.5996986 141.232389,20.5521771 141.117567,20.4575585 C141.003169,20.3629399 140.887924,20.2021308 140.774373,19.975131 L140.129507,18.6971435 L138.978324,18.6971435 L139.682931,20.0179852 C139.88334,20.3934895 140.068495,20.614549 140.236702,20.679891 C139.945199,20.7095919 139.716827,20.8411245 139.551586,21.0770345 C139.387191,21.3116717 139.304994,21.6086807 139.304147,21.9680617 C139.304994,22.4093323 139.415579,22.7351936 139.637596,22.9469186 C139.859613,23.157795 140.210857,23.2625968 140.691752,23.2625968 L142.724224,23.2625968 L142.724224,18.6971435 L142.724224,18.6975678 Z M137.769942,18.6975678 L137.641562,19.196543 C137.472084,18.9962741 137.290742,18.845648 137.097113,18.744665 C136.903907,18.6441062 136.698838,18.594039 136.481058,18.594039 C136.117527,18.594039 135.819245,18.7170856 135.587059,18.9623302 C135.355721,19.2075748 135.238781,19.5342847 135.238781,19.9416114 C135.238781,20.199585 135.286658,20.4253118 135.381143,20.6170948 C135.476051,20.8088778 135.609091,20.9624739 135.781112,21.0778831 C135.952285,21.1924438 136.227688,21.2942754 136.605625,21.3833782 C137.064064,21.4894528 137.383108,21.5883144 137.564026,21.6803872 C137.564026,21.9324206 137.546231,22.0983214 137.509793,22.1768166 C137.474202,22.2561604 137.408106,22.3202295 137.311927,22.3702968 C137.217019,22.4212126 137.08186,22.4466705 136.906449,22.4466705 C136.728497,22.4466705 136.589525,22.4055136 136.487837,22.3257454 C136.38615,22.2451287 136.303953,22.0945027 136.240822,21.8738674 L135.342586,22.0720148 C135.451476,22.5328032 135.6307,22.8654533 135.882375,23.0674194 C136.132356,23.2693856 136.492498,23.3712173 136.962801,23.3712173 C137.380566,23.3712173 137.700033,23.3118154 137.921202,23.1942847 C138.141524,23.076754 138.299139,22.9167934 138.393623,22.7148273 C138.488531,22.5124368 138.535138,22.1441456 138.535138,21.6108022 L138.526664,20.1991607 C138.526664,19.8032901 138.542341,19.5075539 138.573271,19.314498 C138.605895,19.1214422 138.664365,18.9156573 138.750376,18.6975678 L137.770366,18.6975678 L137.769942,18.6975678 Z M134.368932,19.0285208 C134.152847,18.8078855 133.867276,18.6975678 133.512218,18.6975678 L131.075117,18.6975678 L131.075117,23.2630211 L133.310115,23.2630211 C134.143949,23.2630211 134.560867,22.8663019 134.560867,22.0720148 C134.560867,21.5373986 134.351561,21.1915952 133.933796,21.0341804 C134.440537,20.8585208 134.693907,20.4804707 134.693907,19.8983329 C134.693907,19.5393763 134.586712,19.249156 134.36978,19.0285208 L134.368932,19.0285208 Z M130.021384,19.7345537 C129.842161,19.355655 129.607857,19.0713749 129.316777,18.8800162 C129.026122,18.6899304 128.706655,18.594039 128.360071,18.594039 C127.805029,18.594039 127.344047,18.8061883 126.977126,19.2304869 C126.610205,19.6556341 126.427168,20.2615326 126.427168,21.0473336 C126.427168,21.4945444 126.515297,21.9027197 126.69325,22.2693137 C126.871202,22.6367563 127.102964,22.9125504 127.389383,23.0958474 C127.676225,23.2791444 127.998234,23.3716415 128.356681,23.3716415 C128.95833,23.3716415 129.430752,23.1348829 129.774369,22.6630628 C130.117563,22.1920914 130.289584,21.6392302 130.289584,21.0082982 C130.289584,20.5373267 130.200608,20.1130281 130.020961,19.7354023 L130.021384,19.7345537 Z M126.139055,22.3125922 L124.609511,22.3125922 L124.609511,18.6975678 L123.618062,18.6975678 L123.618062,23.2630211 L126.139055,23.2630211 L126.139055,22.3125922 L126.139055,22.3125922 Z M122.401206,19.2203037 C122.091908,18.8032182 121.723292,18.594039 121.297477,18.594039 C121.099187,18.594039 120.915303,18.6419847 120.744977,18.7383005 C120.573804,18.8346163 120.394156,19.0085787 120.205612,19.2614607 L120.205612,16.9592163 L119.212891,16.9592163 L119.212891,23.2676884 L120.136549,23.2676884 L120.136549,22.5964479 C120.262387,22.8370253 120.4289,23.0266868 120.634816,23.1641595 C120.84158,23.3020566 121.062749,23.3712173 121.300867,23.3712173 C121.727952,23.3712173 122.094873,23.1675539 122.402477,22.7602272 C122.711775,22.3529005 122.864306,21.7745815 122.864306,21.0256944 C122.864306,20.2390447 122.710504,19.6373893 122.400782,19.2198794 L122.401206,19.2203037 Z M118.196444,19.7345537 C118.01722,19.355655 117.782492,19.0713749 117.491413,18.8800162 C117.201605,18.6899304 116.882561,18.594039 116.535978,18.594039 C115.980936,18.594039 115.519107,18.8061883 115.152609,19.2304869 C114.785688,19.6556341 114.602651,20.2615326 114.602651,21.0473336 C114.602651,21.4945444 114.691628,21.9027197 114.868733,22.2693137 C115.046685,22.6367563 115.278871,22.9125504 115.564866,23.0958474 C115.851285,23.2791444 116.173717,23.3716415 116.532164,23.3716415 C117.133813,23.3716415 117.606235,23.1348829 117.949852,22.6630628 C118.293894,22.1920914 118.465067,21.6392302 118.465067,21.0082982 C118.465067,20.5373267 118.376091,20.1130281 118.196867,19.7354023 L118.196444,19.7345537 Z M114.245899,22.3125922 L113.047686,22.3125922 L113.047686,18.6975678 L112.054542,18.6975678 L112.054542,22.3125922 L110.856329,22.3125922 L110.856329,23.2630211 L114.245899,23.2630211 L114.245899,22.3125922 L114.245899,22.3125922 Z M108.294661,18.6975678 L107.303211,18.6975678 L107.303211,20.5996986 L107.13458,20.5996986 C106.951543,20.5996986 106.802826,20.5521771 106.688004,20.4575585 C106.573606,20.3629399 106.459208,20.2021308 106.34481,19.975131 L105.699944,18.6971435 L104.548338,18.6971435 L105.252945,20.0179852 C105.453353,20.3934895 105.638508,20.614549 105.80714,20.679891 C105.514789,20.7095919 105.28684,20.8411245 105.121599,21.0770345 C104.957205,21.3116717 104.875008,21.6086807 104.874584,21.9680617 C104.874584,22.4093323 104.985592,22.7351936 105.207609,22.9469186 C105.43005,23.157795 105.781294,23.2625968 106.262613,23.2625968 L108.294661,23.2625968 L108.294661,18.6971435 L108.294661,18.6975678 Z M103.34038,18.6975678 L103.212423,19.196543 C103.042945,18.9962741 102.862026,18.845648 102.668821,18.744665 C102.475192,18.6441062 102.269699,18.594039 102.052343,18.594039 C101.687964,18.594039 101.390529,18.7170856 101.158344,18.9623302 C100.926158,19.2075748 100.809641,19.5342847 100.809641,19.9416114 C100.809641,20.199585 100.857519,20.4253118 100.952003,20.6170948 C101.046911,20.8088778 101.179952,20.9624739 101.351973,21.0778831 C101.523146,21.1924438 101.798549,21.2942754 102.176486,21.3833782 C102.634925,21.4894528 102.954392,21.5883144 103.134887,21.6803872 C103.134887,21.9324206 103.117092,22.0983214 103.081077,22.1768166 C103.045063,22.2561604 102.97939,22.3202295 102.883211,22.3702968 C102.78788,22.4212126 102.65272,22.4466705 102.47731,22.4466705 C102.299358,22.4466705 102.160385,22.4055136 102.058698,22.3257454 C101.957011,22.2451287 101.874814,22.0945027 101.811683,21.8738674 L100.913447,22.0720148 C101.022761,22.5328032 101.202408,22.8654533 101.45366,23.0674194 C101.703641,23.2693856 102.063783,23.3712173 102.534086,23.3712173 C102.95185,23.3712173 103.271317,23.3118154 103.492487,23.1942847 C103.712809,23.076754 103.870424,22.9167934 103.964908,22.7148273 C104.059816,22.5124368 104.106423,22.1441456 104.106423,21.6108022 L104.097949,20.1991607 C104.097949,19.8032901 104.113625,19.5075539 104.144555,19.314498 C104.17718,19.1214422 104.23565,18.9156573 104.32166,18.6975678 L103.339532,18.6975678 L103.34038,18.6975678 Z M100.075376,18.6975678 L99.083079,18.6975678 L99.083079,20.6170948 L97.6649674,20.6170948 L97.6649674,18.6975678 L96.6726706,18.6975678 L96.6726706,23.2630211 L97.6649674,23.2630211 L97.6649674,21.5980733 L99.083079,21.5980733 L99.083079,23.2634454 L100.075376,23.2634454 L100.075376,18.6979921 L100.075376,18.6975678 Z M95.7185065,18.6975678 L94.7270571,18.6975678 L94.7270571,20.6170948 L93.3085219,20.6170948 L93.3085219,18.6975678 L92.3162251,18.6975678 L92.3162251,23.2630211 L93.3085219,23.2630211 L93.3085219,21.5980733 L94.7266334,21.5980733 L94.7266334,23.2634454 L95.7180828,23.2634454 L95.7180828,18.6979921 L95.7185065,18.6975678 Z M91.3120648,19.734978 C91.133265,19.3560793 90.8989609,19.0717992 90.6078815,18.8804405 C90.3176495,18.6903547 89.9977588,18.5944633 89.6515989,18.5944633 C89.0965567,18.5944633 88.6359988,18.8066126 88.2690778,19.2309112 C87.9021568,19.6560584 87.71912,20.2619569 87.71912,21.0477579 C87.71912,21.4949687 87.8068252,21.903144 87.9847776,22.269738 C88.1627301,22.6371806 88.3944919,22.9129747 88.6809107,23.0962717 C88.9673294,23.2795687 89.2893386,23.3720658 89.6477857,23.3720658 C90.2494344,23.3720658 90.7218558,23.1353072 91.0654735,22.6634871 C91.409515,22.1925157 91.581112,21.6396545 91.581112,21.0087225 C91.581112,20.537751 91.4921357,20.1134524 91.3124885,19.7358266 L91.3120648,19.734978 Z M86.7005541,19.220728 C86.3912558,18.8036425 86.02264,18.5944633 85.5964015,18.5944633 C85.3981116,18.5944633 85.2142274,18.642409 85.0439015,18.7387248 C84.8731518,18.8350406 84.6930809,19.009003 84.504536,19.261885 L84.504536,16.9596406 L83.5105445,16.9596406 L83.5105445,23.2681127 L84.4342025,23.2681127 L84.4342025,22.5968722 C84.560464,22.8374496 84.7265529,23.0271111 84.932893,23.1645838 C85.1396568,23.3024809 85.3608263,23.3716415 85.5980962,23.3716415 C86.0260295,23.3716415 86.3929505,23.1679782 86.7009778,22.7606515 C87.0094287,22.3533248 87.1628067,21.7750058 87.1628067,21.0261187 C87.1628067,20.239469 87.0085813,19.6378136 86.6988593,19.2203037 L86.7005541,19.220728 Z M82.9521127,22.3125922 L81.7530521,22.3125922 L81.7530521,18.6975678 L80.7607554,18.6975678 L80.7607554,22.3125922 L79.5616948,22.3125922 L79.5616948,23.2630211 L82.9521127,23.2630211 L82.9521127,22.3125922 L82.9521127,22.3125922 Z M78.4278834,18.6975678 L77.9253796,20.0184095 C77.8253873,20.2857176 77.7389532,20.4567099 77.6669248,20.5326594 C77.5961676,20.6090332 77.488125,20.6463714 77.3449156,20.6463714 L77.3449156,18.6971435 L76.3534663,18.6971435 L76.3534663,23.2625968 L77.3449156,23.2625968 L77.3449156,21.4041688 C77.4796511,21.4181706 77.583033,21.462722 77.6550613,21.5369743 C77.7262423,21.6120751 77.8152186,21.8322861 77.9207189,22.1980315 C78.026643,22.563777 78.1440069,22.8378739 78.2715395,23.0220195 C78.3986484,23.2053165 78.6240548,23.296965 78.9481825,23.296965 C79.0397009,23.296965 79.1685046,23.2863575 79.3345936,23.2630211 L79.3345936,22.4793415 L79.2273984,22.4793415 C79.0697834,22.4806144 78.9498773,22.4568537 78.8672565,22.4114537 C78.7833646,22.3647809 78.7062519,22.2133063 78.6342235,21.9549084 C78.5621952,21.6969348 78.4944038,21.5009089 78.4283071,21.3651333 C78.3626342,21.2306307 78.2537442,21.1232831 78.102061,21.0426664 C78.2278988,20.9959935 78.354584,20.9068908 78.4821166,20.7711152 C78.6100729,20.6361883 78.7626035,20.36591 78.9397086,19.9585834 L79.4854294,18.6967192 L78.4287308,18.6967192 L78.4278834,18.6975678 Z M75.587847,20.6340668 L73.1092235,20.6340668 C73.1147316,20.27214 73.1960813,19.9925272 73.3515778,19.7952284 C73.5083455,19.5970809 73.6960429,19.4982193 73.916365,19.4982193 C74.2349847,19.4982193 74.4468328,19.7158845 74.5519095,20.1524878 L75.5365798,19.9496731 C75.4039628,19.4914306 75.1997412,19.1502945 74.9213727,18.927962 C74.6434279,18.7052052 74.3057419,18.5936147 73.9074674,18.5936147 C73.3549674,18.5936147 72.9278815,18.7786089 72.6279045,19.1494459 C72.2719996,19.5792604 72.0948946,20.1817644 72.0948946,20.956958 C72.0948946,21.719847 72.2741181,22.330837 72.6312941,22.7899281 C72.9350844,23.1768885 73.3278508,23.3712173 73.8091699,23.3712173 C74.344722,23.3712173 74.7641814,23.1730698 75.0675479,22.7771992 C75.4175211,22.3231996 75.5916603,21.6553536 75.5916603,20.7715395 L75.5874233,20.6336425 L75.587847,20.6340668 Z M71.3856269,18.6975678 L70.3941775,18.6975678 L70.3941775,22.3125922 L69.0574156,22.3125922 L69.0574156,20.2301345 C69.0574156,19.89409 69.0341123,19.6191444 68.9883531,19.4057222 C68.9417465,19.1918757 68.8642101,19.0213077 68.7544728,18.8935938 C68.6434643,18.7663042 68.5341507,18.6882332 68.4282266,18.6602295 C68.3206077,18.6334987 68.1718903,18.6199212 67.9833455,18.6199212 C67.8681001,18.6199212 67.6626074,18.6453791 67.3647488,18.6975678 L67.3647488,19.5885949 C67.4444038,19.5830791 67.580834,19.580109 67.7727684,19.580109 C67.8901323,19.580109 67.9668213,19.6204173 68.0045303,19.7031556 C68.0418156,19.7837723 68.0604582,19.9683422 68.0596108,20.2560167 L68.0596108,23.2630211 L71.3856269,23.2630211 L71.3856269,18.6975678 L71.3856269,18.6975678 Z M66.3309298,19.4697913 C65.9055387,18.8834106 65.3394804,18.5902203 64.6310602,18.5902203 C63.4544555,18.5902203 62.7286637,19.2657037 62.4566507,20.6170948 L63.5010621,21.0172084 C63.5527531,20.5844238 63.6832515,20.2517737 63.8900153,20.0209553 C64.0976265,19.7897125 64.3569287,19.6747276 64.6653796,19.6747276 C65.3504965,19.6747276 65.751737,20.2207999 65.8686771,21.3137932 L64.2501572,21.3137932 L64.2501572,22.3809042 L65.8686771,22.3809042 C65.8178336,22.909156 65.6797086,23.3156341 65.4568443,23.6016114 C65.2331327,23.8867401 64.9513746,24.0293044 64.6102991,24.0293044 C64.0552569,24.0293044 63.6845226,23.6792581 63.5014858,22.9795896 L62.4744459,23.2625968 C62.5922335,23.859585 62.8345878,24.3174032 63.2023562,24.6360515 C63.570972,24.9542754 64.028564,25.1133874 64.5751323,25.1133874 C65.3030426,25.1133874 65.8835065,24.8163784 66.3177952,24.2244818 C66.752084,23.6321609 66.9690165,22.8285393 66.9690165,21.8165871 C66.9690165,20.8381544 66.7563209,20.0557477 66.3313535,19.4689427 L66.3309298,19.4697913 Z M56.9134317,15.4576235 L186.388248,15.4576235 L186.388248,28.1203918 L56.9125844,28.1203918 L56.9125844,15.4576235 L56.9134317,15.4576235 Z"></path>
                                <path d="M136.373016,20.4444053 C136.278955,20.3468166 136.231501,20.2212242 136.231501,20.0659309 C136.231501,19.8906956 136.284463,19.7434639 136.389116,19.6246603 C136.493345,19.5058567 136.624691,19.4464549 136.781883,19.4464549 C136.921702,19.4464549 137.060675,19.4939764 137.198376,19.5907164 C137.336077,19.6866079 137.430562,19.80032 137.483947,19.9327011 C137.53691,20.0642337 137.563602,20.3039624 137.563602,20.6510387 L137.563602,20.8928889 C137.437765,20.8411245 137.241593,20.7808741 136.974664,20.7121377 C136.668756,20.631521 136.4675,20.5424183 136.373016,20.4448296 M140.322289,21.903144 C140.322289,21.5106677 140.551085,21.3133689 141.009948,21.3133689 L141.731503,21.3133689 L141.731503,22.4971621 L140.940462,22.4971621 C140.528206,22.4971621 140.321865,22.2994389 140.321865,21.903144 M133.593568,21.9595757 C133.593568,22.3185323 133.328334,22.4971621 132.798714,22.4971621 L132.067414,22.4971621 L132.067414,21.3782866 L132.79829,21.3782866 C133.32791,21.3782866 133.59272,21.5726153 133.59272,21.9595757 M178.244804,20.4444053 C178.150744,20.3468166 178.10329,20.2212242 178.10329,20.0659309 C178.10329,19.8906956 178.155405,19.7434639 178.260058,19.6246603 C178.364711,19.5058567 178.496056,19.4464549 178.653248,19.4464549 C178.793915,19.4464549 178.932887,19.4939764 179.070165,19.5907164 C179.207866,19.6866079 179.30235,19.80032 179.355736,19.9327011 C179.409122,20.0642337 179.435391,20.3039624 179.435391,20.6510387 L179.435391,20.8928889 C179.309553,20.8411245 179.113382,20.7808741 178.846453,20.7121377 C178.540544,20.631521 178.339289,20.5424183 178.244804,20.4448296 M156.361737,22.3859958 C156.113027,22.3859958 155.898637,22.2671922 155.719413,22.0287364 C155.541461,21.7911291 155.451214,21.4419314 155.451214,20.9828403 C155.451214,20.5203547 155.541037,20.171157 155.722379,19.9348226 C155.90245,19.698064 156.120654,19.5796847 156.374872,19.5796847 C156.624005,19.5796847 156.837548,19.6984883 157.014653,19.9369441 C157.192605,20.1745514 157.281582,20.5267192 157.281582,20.9913262 C157.281582,21.4444772 157.190911,21.7907048 157.011263,22.0287364 C156.830345,22.2663436 156.61426,22.3859958 156.361737,22.3859958 M132.669486,20.6378855 L132.067837,20.6378855 L132.067837,19.4634268 L132.931331,19.4634268 C133.424513,19.4634268 133.670681,19.656907 133.670681,20.0438674 C133.670681,20.2369233 133.609245,20.3833063 133.486373,20.485138 C133.362653,20.5869696 133.090217,20.6378855 132.669486,20.6378855 M128.351173,22.3859958 C128.102464,22.3859958 127.888073,22.2671922 127.70885,22.0287364 C127.530897,21.7911291 127.44065,21.4419314 127.44065,20.9828403 C127.44065,20.5203547 127.530474,20.171157 127.711816,19.9348226 C127.891887,19.698064 128.109243,19.5796847 128.364308,19.5796847 C128.613441,19.5796847 128.826984,19.6984883 129.004089,19.9369441 C129.182042,20.1745514 129.271018,20.5267192 129.271018,20.9913262 C129.271018,21.4444772 129.180347,21.7907048 129.0007,22.0287364 C128.819781,22.2663436 128.603696,22.3859958 128.351173,22.3859958 M170.012385,19.7001855 L171.697002,19.7001855 L171.697002,22.2565847 L170.507262,22.2565847 C170.473367,21.0541224 170.308125,20.2029794 170.012809,19.7001855 M166.038113,20.4444053 C165.944053,20.3468166 165.896599,20.2212242 165.896599,20.0659309 C165.896599,19.8906956 165.948714,19.7434639 166.053367,19.6246603 C166.157596,19.5058567 166.289365,19.4464549 166.446557,19.4464549 C166.587224,19.4464549 166.726196,19.4939764 166.863474,19.5907164 C167.001175,19.6866079 167.09566,19.80032 167.149045,19.9327011 C167.202007,20.0642337 167.2287,20.3039624 167.2287,20.6510387 L167.2287,20.8928889 C167.102862,20.8411245 166.906691,20.7808741 166.639762,20.7121377 C166.333854,20.631521 166.132598,20.5424183 166.038113,20.4448296"></path>
                            </g>
                        </g>
                    </g>
                </g>
            </g>
        </g>
    </g>
</svg>